<svg width="48" height="48" viewBox="0 0 48 48" fill="none" xmlns="http://www.w3.org/2000/svg">
<path d="M45.3517 0H2.64828C1.94591 0 1.27231 0.279014 0.775662 0.775662C0.279014 1.27231 0 1.94591 0 2.64828L0 45.3517C0 46.0541 0.279014 46.7277 0.775662 47.2243C1.27231 47.721 1.94591 48 2.64828 48H25.6552V29.4372H19.4069V22.171H25.6552V16.8248C25.6552 10.6262 29.4455 7.24966 34.9738 7.24966C36.8368 7.24559 38.6986 7.33952 40.5517 7.53103V14.011H36.7448C33.7324 14.011 33.1448 15.4345 33.1448 17.5366V22.1628H40.3448L39.4097 29.429H33.1035V48H45.3517C46.0541 48 46.7277 47.721 47.2243 47.2243C47.721 46.7277 48 46.0541 48 45.3517V2.64828C48 1.94591 47.721 1.27231 47.2243 0.775662C46.7277 0.279014 46.0541 0 45.3517 0V0Z" fill="#4267B2"/>
<path d="M33.1028 48.0005V29.4377H39.3676L40.3028 22.1715H33.1028V17.5453C33.1028 15.4432 33.6904 14.0198 36.7028 14.0198H40.5511V7.53152C38.6952 7.33971 36.8306 7.24579 34.9649 7.25014C29.4283 7.25014 25.6545 10.6267 25.6545 16.8253V22.1715H19.4062V29.4377H25.6545V48.0005H33.1028Z" fill="white"/>
</svg>
