<svg width="48" height="48" viewBox="0 0 48 48" fill="none" xmlns="http://www.w3.org/2000/svg">
<path d="M10.6378 29.0073L8.967 35.2446L2.86022 35.3738C1.03519 31.9888 0 28.1159 0 24.0003C0 20.0205 0.967875 16.2675 2.6835 12.9629H2.68481L8.12156 13.9596L10.5032 19.3638C10.0047 20.817 9.73303 22.377 9.73303 24.0003C9.73322 25.762 10.0523 27.45 10.6378 29.0073Z" fill="#FBBB00"/>
<path d="M47.5804 19.5176C47.856 20.9694 47.9997 22.4687 47.9997 24.0011C47.9997 25.7193 47.8191 27.3954 47.4749 29.0121C46.3066 34.5136 43.2538 39.3176 39.0248 42.7171L39.0235 42.7158L32.1757 42.3664L31.2065 36.3163C34.0126 34.6706 36.2056 32.0952 37.3608 29.0121H24.5273V19.5176H37.548H47.5804Z" fill="#518EF8"/>
<path d="M39.0238 42.7155L39.0252 42.7168C34.9123 46.0227 29.6876 48.0007 24.0001 48.0007C14.8604 48.0007 6.91401 42.8922 2.86035 35.3744L10.6379 29.0078C12.6647 34.417 17.8828 38.2676 24.0001 38.2676C26.6295 38.2676 29.0929 37.5568 31.2067 36.3159L39.0238 42.7155Z" fill="#28B446"/>
<path d="M39.3192 5.52525L31.5443 11.8905C29.3566 10.5231 26.7706 9.73312 24.0001 9.73312C17.7443 9.73312 12.4286 13.7603 10.5034 19.3635L2.68491 12.9626H2.68359C6.67791 5.26153 14.7245 0 24.0001 0C29.8234 0 35.1627 2.07431 39.3192 5.52525Z" fill="#F14336"/>
</svg>
