<svg width="48" height="49" viewBox="0 0 48 49" fill="none" xmlns="http://www.w3.org/2000/svg">
<path fill-rule="evenodd" clip-rule="evenodd" d="M16.6323 0.00390625H31.3677C44.8158 0.00390625 48 3.1881 48 16.6362V31.3716C48 44.8197 44.8158 48.0039 31.3677 48.0039H16.6323C3.18419 48.0039 0 44.8197 0 31.3716V16.6362C0 3.1881 3.18419 0.00390625 16.6323 0.00390625Z" fill="#4680C2"/>
<path fill-rule="evenodd" clip-rule="evenodd" d="M39.2937 16.534C39.5308 15.7888 39.2937 15.2468 38.2436 15.2468H34.7545C33.8738 15.2468 33.4673 15.721 33.2302 16.2291C33.2302 16.2291 31.4348 20.565 28.9281 23.3766C28.1151 24.1896 27.7425 24.4606 27.3022 24.4606C27.065 24.4606 26.7602 24.1896 26.7602 23.4444V16.5001C26.7602 15.6194 26.4892 15.2129 25.7439 15.2129H20.2563C19.7143 15.2129 19.3756 15.6194 19.3756 16.0259C19.3756 16.8727 20.6289 17.076 20.7644 19.4472V24.5961C20.7644 25.7139 20.5612 25.9172 20.1208 25.9172C18.9352 25.9172 16.0559 21.5474 14.3283 16.5679C13.9895 15.5855 13.6508 15.2129 12.7701 15.2129H9.24713C8.2309 15.2129 8.06152 15.6871 8.06152 16.1952C8.06152 17.1099 9.24713 21.7168 13.583 27.8141C16.4624 31.9807 20.5612 34.2164 24.2535 34.2164C26.4892 34.2164 26.7602 33.7083 26.7602 32.8614V29.7111C26.7602 28.6949 26.9634 28.5255 27.6748 28.5255C28.1829 28.5255 29.0975 28.7965 31.1638 30.7951C33.535 33.1663 33.9415 34.2503 35.2626 34.2503H38.7517C39.7679 34.2503 40.2422 33.7422 39.9712 32.7598C39.6663 31.7774 38.5146 30.3547 37.0241 28.661C36.2111 27.7125 34.9916 26.6624 34.619 26.1543C34.1109 25.4768 34.2464 25.2058 34.619 24.5961C34.5851 24.5961 38.8533 18.5664 39.2937 16.534Z" fill="white"/>
</svg>
