<svg width="28" height="33" viewBox="0 0 28 33" fill="none" xmlns="http://www.w3.org/2000/svg">
<g filter="url(#filter0_d)">
<path fill-rule="evenodd" clip-rule="evenodd" d="M2 13.5332C2 7.16357 7.16357 2 13.5332 2H14.3673C20.7919 2 26 7.20812 26 13.6327C26 16.4701 24.9629 19.2097 23.084 21.3359L14.9839 30.5016C14.5913 30.9458 13.9008 30.953 13.4991 30.517L5.05121 21.3479C3.08919 19.2184 2 16.4287 2 13.5332Z" fill="url(#paint0_linear)"/>
<path fill-rule="evenodd" clip-rule="evenodd" d="M2 13.5332C2 7.16357 7.16357 2 13.5332 2H14.3673C20.7919 2 26 7.20812 26 13.6327C26 16.4701 24.9629 19.2097 23.084 21.3359L14.9839 30.5016C14.5913 30.9458 13.9008 30.953 13.4991 30.517L5.05121 21.3479C3.08919 19.2184 2 16.4287 2 13.5332Z" fill="#755FFF"/>
</g>
<path d="M9 10.9264C9 9.62734 10.0412 8.57422 11.3256 8.57422H16.6744C17.9588 8.57422 19 9.62734 19 10.9264V16.3365C19 17.6356 17.9588 18.6887 16.6744 18.6887H11.3256C10.0412 18.6887 9 17.6356 9 16.3365V10.9264Z" fill="white"/>
<ellipse cx="11.5582" cy="15.8667" rx="0.930233" ry="0.940884" fill="url(#paint1_linear)"/>
<ellipse cx="11.5582" cy="15.8667" rx="0.930233" ry="0.940884" fill="#755FFF"/>
<path d="M15.9767 15.8667C15.9767 16.3863 15.5602 16.8075 15.0464 16.8075C14.5327 16.8075 14.1162 16.3863 14.1162 15.8667C14.1162 15.347 14.5327 14.9258 15.0464 14.9258C15.5602 14.9258 15.9767 15.347 15.9767 15.8667Z" fill="url(#paint2_linear)"/>
<path d="M15.9767 15.8667C15.9767 16.3863 15.5602 16.8075 15.0464 16.8075C14.5327 16.8075 14.1162 16.3863 14.1162 15.8667C14.1162 15.347 14.5327 14.9258 15.0464 14.9258C15.5602 14.9258 15.9767 15.347 15.9767 15.8667Z" fill="#755FFF"/>
<path d="M15.0464 14.9258H18.9999V16.8075H15.0464V14.9258Z" fill="url(#paint3_linear)"/>
<path d="M15.0464 14.9258H18.9999V16.8075H15.0464V14.9258Z" fill="#755FFF"/>
<defs>
<filter id="filter0_d" x="0" y="0" width="28" height="32.8394" filterUnits="userSpaceOnUse" color-interpolation-filters="sRGB">
<feFlood flood-opacity="0" result="BackgroundImageFix"/>
<feColorMatrix in="SourceAlpha" type="matrix" values="0 0 0 0 0 0 0 0 0 0 0 0 0 0 0 0 0 0 127 0"/>
<feOffset/>
<feGaussianBlur stdDeviation="1"/>
<feColorMatrix type="matrix" values="0 0 0 0 0 0 0 0 0 0 0 0 0 0 0 0 0 0 0.2 0"/>
<feBlend mode="normal" in2="BackgroundImageFix" result="effect1_dropShadow"/>
<feBlend mode="normal" in="SourceGraphic" in2="effect1_dropShadow" result="shape"/>
</filter>
<linearGradient id="paint0_linear" x1="3.67089" y1="2.9069" x2="28.2286" y2="24.8665" gradientUnits="userSpaceOnUse">
<stop stop-color="#CB2D3E"/>
<stop offset="1" stop-color="#EF473A"/>
</linearGradient>
<linearGradient id="paint1_linear" x1="10.7575" y1="14.985" x2="12.3669" y2="16.6948" gradientUnits="userSpaceOnUse">
<stop stop-color="#CB2D3E"/>
<stop offset="1" stop-color="#EF473A"/>
</linearGradient>
<linearGradient id="paint2_linear" x1="14.4562" y1="14.985" x2="15.4809" y2="17.8424" gradientUnits="userSpaceOnUse">
<stop stop-color="#CB2D3E"/>
<stop offset="1" stop-color="#EF473A"/>
</linearGradient>
<linearGradient id="paint3_linear" x1="14.4562" y1="14.985" x2="15.4809" y2="17.8424" gradientUnits="userSpaceOnUse">
<stop stop-color="#CB2D3E"/>
<stop offset="1" stop-color="#EF473A"/>
</linearGradient>
</defs>
</svg>
